  0
SECTION
  2
HEADER
  9
$ACADVER
  1
AC1014
  9
$HANDSEED
  5
FFFF
  9
$MEASUREMENT
 70
     1
  0
ENDSEC
  0
SECTION
  2
TABLES
  0
TABLE
  2
VPORT
  5
8
330
0
100
AcDbSymbolTable
 70
     4
  0
VPORT
  5
2E
330
8
100
AcDbSymbolTableRecord
100
AcDbViewportTableRecord
  2
*ACTIVE
 70
     0
 10
0.0
 20
0.0
 11
1.0
 21
1.0
 12
210.0
 22
148.5
 13
0.0
 23
0.0
 14
10.0
 24
10.0
 15
10.0
 25
10.0
 16
0.0
 26
0.0
 36
1.0
 17
0.0
 27
0.0
 37
0.0
 40
341.0
 41
1.24
 42
50.0
 43
0.0
 44
0.0
 50
0.0
 51
0.0
 71
     0
 72
   100
 73
     1
 74
     3
 75
     0
 76
     0
 77
     0
 78
     0
  0
ENDTAB
  0
TABLE
  2
LTYPE
  5
5
330
0
100
AcDbSymbolTable
 70
     1
  0
LTYPE
  5
14
330
5
100
AcDbSymbolTableRecord
100
AcDbLinetypeTableRecord
  2
BYBLOCK
 70
     0
  3

 72
    65
 73
     0
 40
0.0
  0
LTYPE
  5
15
330
5
100
AcDbSymbolTableRecord
100
AcDbLinetypeTableRecord
  2
BYLAYER
 70
     0
  3

 72
    65
 73
     0
 40
0.0
  0
LTYPE
  5
16
330
5
100
AcDbSymbolTableRecord
100
AcDbLinetypeTableRecord
  2
CONTINUOUS
 70
     0
  3
Solid line
 72
    65
 73
     0
 40
0.0
  0
ENDTAB
  0
TABLE
  2
LAYER
  5
2
100
AcDbSymbolTable
 70
2
  0
LAYER
  5
50
100
AcDbSymbolTableRecord
100
AcDbLayerTableRecord
  2
0
 70
0
  6
CONTINUOUS
  0
LAYER
  5
51
100
AcDbSymbolTableRecord
100
AcDbLayerTableRecord
  2
Layer_1
 70
0
  6
CONTINUOUS
  0
ENDTAB
  0
TABLE
  2
STYLE
  5
3
330
0
100
AcDbSymbolTable
 70
     1
  0
STYLE
  5
11
330
3
100
AcDbSymbolTableRecord
100
AcDbTextStyleTableRecord
  2
STANDARD
 70
     0
 40
0.0
 41
1.0
 50
0.0
 71
     0
 42
2.5
  3
txt
  4

  0
ENDTAB
  0
TABLE
  2
VIEW
  5
6
330
0
100
AcDbSymbolTable
 70
     0
  0
ENDTAB
  0
TABLE
  2
UCS
  5
7
330
0
100
AcDbSymbolTable
 70
     0
  0
ENDTAB
  0
TABLE
  2
APPID
  5
9
330
0
100
AcDbSymbolTable
 70
     2
  0
APPID
  5
12
330
9
100
AcDbSymbolTableRecord
100
AcDbRegAppTableRecord
  2
ACAD
 70
     0
  0
ENDTAB
  0
TABLE
  2
DIMSTYLE
  5
A
330
0
100
AcDbSymbolTable
 70
     1
  0
DIMSTYLE
105
27
330
A
100
AcDbSymbolTableRecord
100
AcDbDimStyleTableRecord
  2
ISO-25
 70
     0
  3

  4

  5

  6

  7

 40
1.0
 41
2.5
 42
0.625
 43
3.75
 44
1.25
 45
0.0
 46
0.0
 47
0.0
 48
0.0
140
2.5
141
2.5
142
0.0
143
0.03937007874016
144
1.0
145
0.0
146
1.0
147
0.625
 71
     0
 72
     0
 73
     0
 74
     0
 75
     0
 76
     0
 77
     1
 78
     8
170
     0
171
     3
172
     1
173
     0
174
     0
175
     0
176
     0
177
     0
178
     0
270
     2
271
     2
272
     2
273
     2
274
     3
340
11
275
     0
280
     0
281
     0
282
     0
283
     0
284
     8
285
     0
286
     0
287
     3
288
     0
  0
ENDTAB
  0
TABLE
  2
BLOCK_RECORD
  5
1
330
0
100
AcDbSymbolTable
 70
     1
  0
BLOCK_RECORD
  5
1F
330
1
100
AcDbSymbolTableRecord
100
AcDbBlockTableRecord
  2
*MODEL_SPACE
  0
BLOCK_RECORD
  5
1B
330
1
100
AcDbSymbolTableRecord
100
AcDbBlockTableRecord
  2
*PAPER_SPACE
  0
ENDTAB
  0
ENDSEC
  0
SECTION
  2
BLOCKS
  0
BLOCK
  5
20
330
1F
100
AcDbEntity
  8
0
100
AcDbBlockBegin
  2
*MODEL_SPACE
 70
     0
 10
0.0
 20
0.0
 30
0.0
  3
*MODEL_SPACE
  1

  0
ENDBLK
  5
21
330
1F
100
AcDbEntity
  8
0
100
AcDbBlockEnd
  0
BLOCK
  5
1C
330
1B
100
AcDbEntity
 67
     1
  8
0
100
AcDbBlockBegin
  2
*PAPER_SPACE
  1

  0
ENDBLK
  5
1D
330
1B
100
AcDbEntity
 67
     1
  8
0
100
AcDbBlockEnd
  0
ENDSEC
  0
SECTION
  2
ENTITIES
  0
SPLINE
  5
100
100
AcDbEntity
  8
Layer_1
 62
7
100
AcDbSpline
 70
8
 71
3
 72
8
 73
4
 74
0
 40
0
 40
0
 40
0
 40
0
 40
1
 40
1
 40
1
 40
1
 10
97.752817
 20
133.357182
 30
0.0
 10
102.098136
 20
129.505802
 30
0.0
 10
93.950491
 20
126.342956
 30
0.0
 10
90.421183
 20
127.051482
 30
0.0
  0
SPLINE
  5
101
100
AcDbEntity
  8
Layer_1
 62
7
100
AcDbSpline
 70
8
 71
3
 72
8
 73
4
 74
0
 40
0
 40
0
 40
0
 40
0
 40
1
 40
1
 40
1
 40
1
 10
90.421183
 20
127.051482
 30
0.0
 10
80.856974
 20
128.971544
 30
0.0
 10
79.409162
 20
139.695493
 30
0.0
 10
83.308412
 20
146.159672
 30
0.0
  0
SPLINE
  5
102
100
AcDbEntity
  8
Layer_1
 62
7
100
AcDbSpline
 70
8
 71
3
 72
8
 73
4
 74
0
 40
0
 40
0
 40
0
 40
0
 40
1
 40
1
 40
1
 40
1
 10
83.308412
 20
146.159672
 30
0.0
 10
90.283249
 20
157.722568
 30
0.0
 10
108.147510
 20
158.965243
 30
0.0
 10
119.747729
 20
152.274278
 30
0.0
  0
SPLINE
  5
103
100
AcDbEntity
  8
Layer_1
 62
7
100
AcDbSpline
 70
8
 71
3
 72
8
 73
4
 74
0
 40
0
 40
0
 40
0
 40
0
 40
1
 40
1
 40
1
 40
1
 10
119.747729
 20
152.274278
 30
0.0
 10
136.771519
 20
142.455021
 30
0.0
 10
138.178896
 20
121.421231
 30
0.0
 10
126.641636
 20
107.752198
 30
0.0
  0
SPLINE
  5
104
100
AcDbEntity
  8
Layer_1
 62
7
100
AcDbSpline
 70
8
 71
3
 72
8
 73
4
 74
0
 40
0
 40
0
 40
0
 40
0
 40
1
 40
1
 40
1
 40
1
 10
126.641636
 20
107.752198
 30
0.0
 10
111.264285
 20
89.533528
 30
0.0
 10
80.755844
 20
88.332481
 30
0.0
 10
61.094631
 20
101.828682
 30
0.0
  0
SPLINE
  5
105
100
AcDbEntity
  8
Layer_1
 62
7
100
AcDbSpline
 70
8
 71
3
 72
8
 73
4
 74
0
 40
0
 40
0
 40
0
 40
0
 40
1
 40
1
 40
1
 40
1
 10
61.094631
 20
101.828682
 30
0.0
 10
36.353000
 20
118.812273
 30
0.0
 10
35.017026
 20
151.122174
 30
0.0
 10
54.419593
 20
171.764655
 30
0.0
  0
SPLINE
  5
106
100
AcDbEntity
  8
Layer_1
 62
7
100
AcDbSpline
 70
8
 71
3
 72
8
 73
4
 74
0
 40
0
 40
0
 40
0
 40
0
 40
1
 40
1
 40
1
 40
1
 10
54.419593
 20
171.764655
 30
0.0
 10
77.918705
 20
196.765464
 30
0.0
 10
121.463411
 20
197.893845
 30
0.0
 10
149.074280
 20
177.497078
 30
0.0
  0
SPLINE
  5
107
100
AcDbEntity
  8
Layer_1
 62
7
100
AcDbSpline
 70
8
 71
3
 72
8
 73
4
 74
0
 40
0
 40
0
 40
0
 40
0
 40
1
 40
1
 40
1
 40
1
 10
149.074280
 20
177.497078
 30
0.0
 10
181.612734
 20
153.460193
 30
0.0
 10
182.859372
 20
109.711461
 30
0.0
 10
155.530455
 20
82.147219
 30
0.0
  0
SPLINE
  5
108
100
AcDbEntity
  8
Layer_1
 62
7
100
AcDbSpline
 70
8
 71
3
 72
8
 73
4
 74
0
 40
0
 40
0
 40
0
 40
0
 40
1
 40
1
 40
1
 40
1
 10
155.530455
 20
82.147219
 30
0.0
 10
123.978136
 20
50.323210
 30
0.0
 10
67.292767
 20
49.275817
 30
0.0
 10
31.768085
 20
76.605885
 30
0.0
  0
SPLINE
  5
109
100
AcDbEntity
  8
Layer_1
 62
7
100
AcDbSpline
 70
8
 71
3
 72
8
 73
4
 74
0
 40
0
 40
0
 40
0
 40
0
 40
1
 40
1
 40
1
 40
1
 10
31.768085
 20
76.605885
 30
0.0
 10
-8.597318
 20
107.660042
 30
0.0
 10
-9.749146
 20
162.904177
 30
0.0
 10
25.530778
 20
197.369635
 30
0.0
  0
SPLINE
  5
10a
100
AcDbEntity
  8
Layer_1
 62
7
100
AcDbSpline
 70
8
 71
3
 72
8
 73
4
 74
0
 40
0
 40
0
 40
0
 40
0
 40
1
 40
1
 40
1
 40
1
 10
25.530778
 20
197.369635
 30
0.0
 10
65.109520
 20
236.034673
 30
0.0
 10
134.978671
 20
236.998146
 30
0.0
 10
178.400827
 20
202.719879
 30
0.0
  0
SPLINE
  5
10b
100
AcDbEntity
  8
Layer_1
 62
7
100
AcDbSpline
 70
8
 71
3
 72
8
 73
4
 74
0
 40
0
 40
0
 40
0
 40
0
 40
1
 40
1
 40
1
 40
1
 10
178.400827
 20
202.719879
 30
0.0
 10
226.607656
 20
164.664501
 30
0.0
 10
227.662496
 20
97.898584
 30
0.0
 10
184.419270
 20
56.542235
 30
0.0
  0
LWPOLYLINE
  5
10c
100
AcDbEntity
  8
Layer_1
 62
7
100
AcDbPolyline
 90
2
 70
0
 10
21.184928
 20
17.200008
 30
0.0
 10
21.184928
 20
0.400008
 30
0.0
  0
LWPOLYLINE
  5
10d
100
AcDbEntity
  8
Layer_1
 62
7
100
AcDbPolyline
 90
2
 70
0
 10
32.384928
 20
17.200008
 30
0.0
 10
21.184928
 20
6.000008
 30
0.0
  0
LWPOLYLINE
  5
10e
100
AcDbEntity
  8
Layer_1
 62
7
100
AcDbPolyline
 90
2
 70
0
 10
25.184928
 20
10.000008
 30
0.0
 10
32.384928
 20
0.400008
 30
0.0
  0
LWPOLYLINE
  5
10f
100
AcDbEntity
  8
Layer_1
 62
7
100
AcDbPolyline
 90
2
 70
0
 10
37.984928
 20
17.200008
 30
0.0
 10
37.984928
 20
0.400008
 30
0.0
  0
LWPOLYLINE
  5
110
100
AcDbEntity
  8
Layer_1
 62
7
100
AcDbPolyline
 90
2
 70
0
 10
37.984928
 20
17.200008
 30
0.0
 10
49.184928
 20
0.400008
 30
0.0
  0
LWPOLYLINE
  5
111
100
AcDbEntity
  8
Layer_1
 62
7
100
AcDbPolyline
 90
2
 70
0
 10
49.184928
 20
17.200008
 30
0.0
 10
49.184928
 20
0.400008
 30
0.0
  0
LWPOLYLINE
  5
112
100
AcDbEntity
  8
Layer_1
 62
7
100
AcDbPolyline
 90
21
 70
0
 10
59.584928
 20
17.200008
 30
0.0
 10
57.984928
 20
16.400008
 30
0.0
 10
56.384928
 20
14.800008
 30
0.0
 10
55.584928
 20
13.200008
 30
0.0
 10
54.784928
 20
10.800008
 30
0.0
 10
54.784928
 20
6.800008
 30
0.0
 10
55.584928
 20
4.400008
 30
0.0
 10
56.384928
 20
2.800008
 30
0.0
 10
57.984928
 20
1.200008
 30
0.0
 10
59.584928
 20
0.400008
 30
0.0
 10
62.784928
 20
0.400008
 30
0.0
 10
64.384928
 20
1.200008
 30
0.0
 10
65.984928
 20
2.800008
 30
0.0
 10
66.784928
 20
4.400008
 30
0.0
 10
67.584928
 20
6.800008
 30
0.0
 10
67.584928
 20
10.800008
 30
0.0
 10
66.784928
 20
13.200008
 30
0.0
 10
65.984928
 20
14.800008
 30
0.0
 10
64.384928
 20
16.400008
 30
0.0
 10
62.784928
 20
17.200008
 30
0.0
 10
59.584928
 20
17.200008
 30
0.0
  0
LWPOLYLINE
  5
113
100
AcDbEntity
  8
Layer_1
 62
7
100
AcDbPolyline
 90
2
 70
0
 10
72.384928
 20
17.200008
 30
0.0
 10
83.584928
 20
0.400008
 30
0.0
  0
LWPOLYLINE
  5
114
100
AcDbEntity
  8
Layer_1
 62
7
100
AcDbPolyline
 90
2
 70
0
 10
83.584928
 20
17.200008
 30
0.0
 10
72.384928
 20
0.400008
 30
0.0
  0
LWPOLYLINE
  5
115
100
AcDbEntity
  8
Layer_1
 62
7
100
AcDbPolyline
 90
2
 70
0
 10
101.984928
 20
17.200008
 30
0.0
 10
101.984928
 20
0.400008
 30
0.0
  0
LWPOLYLINE
  5
116
100
AcDbEntity
  8
Layer_1
 62
7
100
AcDbPolyline
 90
2
 70
0
 10
101.984928
 20
17.200008
 30
0.0
 10
108.384928
 20
0.400008
 30
0.0
  0
LWPOLYLINE
  5
117
100
AcDbEntity
  8
Layer_1
 62
7
100
AcDbPolyline
 90
2
 70
0
 10
114.784928
 20
17.200008
 30
0.0
 10
108.384928
 20
0.400008
 30
0.0
  0
LWPOLYLINE
  5
118
100
AcDbEntity
  8
Layer_1
 62
7
100
AcDbPolyline
 90
2
 70
0
 10
114.784928
 20
17.200008
 30
0.0
 10
114.784928
 20
0.400008
 30
0.0
  0
LWPOLYLINE
  5
119
100
AcDbEntity
  8
Layer_1
 62
7
100
AcDbPolyline
 90
2
 70
0
 10
125.184928
 20
17.200008
 30
0.0
 10
118.784928
 20
0.400008
 30
0.0
  0
LWPOLYLINE
  5
11a
100
AcDbEntity
  8
Layer_1
 62
7
100
AcDbPolyline
 90
2
 70
0
 10
125.184928
 20
17.200008
 30
0.0
 10
131.584928
 20
0.400008
 30
0.0
  0
LWPOLYLINE
  5
11b
100
AcDbEntity
  8
Layer_1
 62
7
100
AcDbPolyline
 90
2
 70
0
 10
121.184928
 20
6.000008
 30
0.0
 10
129.184928
 20
6.000008
 30
0.0
  0
LWPOLYLINE
  5
11c
100
AcDbEntity
  8
Layer_1
 62
7
100
AcDbPolyline
 90
2
 70
0
 10
135.584928
 20
17.200008
 30
0.0
 10
135.584928
 20
0.400008
 30
0.0
  0
LWPOLYLINE
  5
11d
100
AcDbEntity
  8
Layer_1
 62
7
100
AcDbPolyline
 90
2
 70
0
 10
146.784928
 20
17.200008
 30
0.0
 10
135.584928
 20
6.000008
 30
0.0
  0
LWPOLYLINE
  5
11e
100
AcDbEntity
  8
Layer_1
 62
7
100
AcDbPolyline
 90
2
 70
0
 10
139.584928
 20
10.000008
 30
0.0
 10
146.784928
 20
0.400008
 30
0.0
  0
LWPOLYLINE
  5
11f
100
AcDbEntity
  8
Layer_1
 62
7
100
AcDbPolyline
 90
2
 70
0
 10
152.384928
 20
17.200008
 30
0.0
 10
152.384928
 20
0.400008
 30
0.0
  0
LWPOLYLINE
  5
120
100
AcDbEntity
  8
Layer_1
 62
7
100
AcDbPolyline
 90
2
 70
0
 10
152.384928
 20
17.200008
 30
0.0
 10
162.784928
 20
17.200008
 30
0.0
  0
LWPOLYLINE
  5
121
100
AcDbEntity
  8
Layer_1
 62
7
100
AcDbPolyline
 90
2
 70
0
 10
152.384928
 20
9.200008
 30
0.0
 10
158.784928
 20
9.200008
 30
0.0
  0
LWPOLYLINE
  5
122
100
AcDbEntity
  8
Layer_1
 62
7
100
AcDbPolyline
 90
2
 70
0
 10
152.384928
 20
0.400008
 30
0.0
 10
162.784928
 20
0.400008
 30
0.0
  0
LWPOLYLINE
  5
123
100
AcDbEntity
  8
Layer_1
 62
7
100
AcDbPolyline
 90
2
 70
0
 10
167.584928
 20
17.200008
 30
0.0
 10
167.584928
 20
0.400008
 30
0.0
  0
LWPOLYLINE
  5
124
100
AcDbEntity
  8
Layer_1
 62
7
100
AcDbPolyline
 90
10
 70
0
 10
167.584928
 20
17.200008
 30
0.0
 10
174.784928
 20
17.200008
 30
0.0
 10
177.184928
 20
16.400008
 30
0.0
 10
177.984928
 20
15.600008
 30
0.0
 10
178.784928
 20
14.000008
 30
0.0
 10
178.784928
 20
12.400008
 30
0.0
 10
177.984928
 20
10.800008
 30
0.0
 10
177.184928
 20
10.000008
 30
0.0
 10
174.784928
 20
9.200008
 30
0.0
 10
167.584928
 20
9.200008
 30
0.0
  0
LWPOLYLINE
  5
125
100
AcDbEntity
  8
Layer_1
 62
7
100
AcDbPolyline
 90
2
 70
0
 10
173.184928
 20
9.200008
 30
0.0
 10
178.784928
 20
0.400008
 30
0.0
  0
LWPOLYLINE
  5
126
100
AcDbEntity
  8
Layer_1
 62
7
100
AcDbPolyline
 90
20
 70
0
 10
194.784928
 20
14.800008
 30
0.0
 10
193.184928
 20
16.400008
 30
0.0
 10
190.784928
 20
17.200008
 30
0.0
 10
187.584928
 20
17.200008
 30
0.0
 10
185.184928
 20
16.400008
 30
0.0
 10
183.584928
 20
14.800008
 30
0.0
 10
183.584928
 20
13.200008
 30
0.0
 10
184.384928
 20
11.600008
 30
0.0
 10
185.184928
 20
10.800008
 30
0.0
 10
186.784928
 20
10.000008
 30
0.0
 10
191.584928
 20
8.400008
 30
0.0
 10
193.184928
 20
7.600008
 30
0.0
 10
193.984928
 20
6.800008
 30
0.0
 10
194.784928
 20
5.200008
 30
0.0
 10
194.784928
 20
2.800008
 30
0.0
 10
193.184928
 20
1.200008
 30
0.0
 10
190.784928
 20
0.400008
 30
0.0
 10
187.584928
 20
0.400008
 30
0.0
 10
185.184928
 20
1.200008
 30
0.0
 10
183.584928
 20
2.800008
 30
0.0
  0
ENDSEC
  0
SECTION
  2
OBJECTS
  0
DICTIONARY
  5
C
330
0
100
AcDbDictionary
  3
ACAD_GROUP
350
D
  3
ACAD_MLINESTYLE
350
17
  0
DICTIONARY
  5
D
330
C
100
AcDbDictionary
  0
DICTIONARY
  5
1A
330
C
100
AcDbDictionary
  0
DICTIONARY
  5
17
330
C
100
AcDbDictionary
  3
STANDARD
350
18
  0
DICTIONARY
  5
19
330
C
100
AcDbDictionary
  0
ENDSEC
  0
EOF
